<svg xmlns="http://www.w3.org/2000/svg" xmlns:xlink="http://www.w3.org/1999/xlink" version="1.1" x="0px" y="0px" viewBox="0 0 300 375" enable-background="new 0 0 300 300" xml:space="preserve"><path d="M273,160.9c0-1.7-0.8-3.2-2.2-4.1c-1.4-0.9-3.1-1.1-4.7-0.5l-29.3,11.9l-4.9-143.3c-0.1-2.7-2.3-4.8-5-4.8H211c0,0,0,0,0,0  h-21.1c-2.7,0-4.9,2.1-5,4.8l-0.7,21.5c0,0.2,0,0.5,0,0.7l-0.6,19.5c-0.1,0.5-0.1,0.9,0,1.4l-0.6,19.1c-0.1,0.6-0.1,1.2-0.1,1.8  l-0.6,18.8c-0.2,0.7-0.2,1.4-0.1,2.1l-0.6,18.5c-0.2,0.8-0.2,1.5-0.1,2.3l-0.6,18.3c-0.2,0.8-0.3,1.7-0.1,2.5l-0.6,18.1  c-0.3,0.9-0.3,1.8-0.1,2.7l-0.6,17.9c-0.2,0.5-0.3,1-0.3,1.5l-24.5,9.9v-57.2c0-1.7-0.8-3.2-2.2-4.2c-1.4-0.9-3.1-1.1-4.7-0.5  l-118,48.3c-1.9,0.8-3.1,2.6-3.1,4.6v80.9c0,0,0,0,0,0v1.7c0,2.8,2.3,5,5.1,5h235.8c2.8,0,5.1-2.2,5.1-5v-24.1c0,0,0,0,0,0  L273,160.9z M263,268H37v-12h226V268z M200,183l26.4-26.4l0.2,5.7L209.8,179L200,183z M194.1,48.9L213,30h5.9l-25,25L194.1,48.9z   M193.5,69.6l28.9-28.9l0.2,5.7l-29.3,29.3L193.5,69.6z M192.8,90.2L223.1,60l0.2,5.7l-30.6,30.6L192.8,90.2z M192.2,110.8  l31.5-31.5l0.2,5.7L192,116.9L192.2,110.8z M191.5,131.5l32.8-32.8l0.2,5.7l-33.2,33.2L191.5,131.5z M190.9,152.1L225,118l0.2,5.7  l-34.5,34.5L190.9,152.1z M190.3,172.8l35.4-35.4l0.2,5.7l-35.8,35.8L190.3,172.8z M198.9,30l-4.3,4.3l0.1-4.3H198.9z M145,151.5  v57.2c0,1.7,0.8,3.2,2.2,4.1c1.4,0.9,3.1,1.1,4.7,0.5l33.4-13.6c0.8-0.1,1.5-0.4,2.2-0.9l27-11c0,0,0,0,0.1,0l17.1-6.9  c0.1,0,0.2,0,0.3,0c1.5,0,2.8-0.7,3.7-1.7l27.2-11l0,77.6H37v-50.3L145,151.5z"/><text x="0" y="315" fill="#000000" font-size="5px" font-weight="bold" font-family="'Helvetica Neue', Helvetica, Arial-Unicode, Arial, Sans-serif">Created by Seb Cornelius</text><text x="0" y="320" fill="#000000" font-size="5px" font-weight="bold" font-family="'Helvetica Neue', Helvetica, Arial-Unicode, Arial, Sans-serif">from the Noun Project</text></svg>