<svg xmlns="http://www.w3.org/2000/svg" xmlns:xlink="http://www.w3.org/1999/xlink" version="1.1" x="0px" y="0px" viewBox="0 0 64 80" enable-background="new 0 0 64 64" xml:space="preserve"><g><path fill="#000000" d="M16.5,23.3c0,0.2,0,0.4,0.1,0.6l0.4,1.4c0.5,1.6,1,3.2,1.6,4.8c1.4,3.9,4,6.4,7.7,7.5   c1.9,0.5,3.6,0.9,5.2,1.1c0.5,0.1,1.1,0.1,1.8,0.1c0.5,0,0.9,0,1.4,0c0.5,0,0.9,0,1.4,0h0.6l-0.1-0.6c-1.5-9.8-7.9-15.9-16.7-15.9   c-1,0-1.9,0.1-2.9,0.2l-0.4,0.1l0,0.4C16.5,23.2,16.5,23.2,16.5,23.3z M19.9,23.4c8.2,0,14.1,5.4,15.7,14.5c-0.3,0-0.6,0-0.8,0   c-1.1,0-2.2,0-3-0.1c-1.6-0.2-3.2-0.5-5-1.1c-3.4-1-5.8-3.3-7.1-6.9c-0.6-1.6-1.1-3.2-1.6-4.7l-0.4-1.4c0,0,0-0.1,0-0.1   C18.3,23.4,19.1,23.4,19.9,23.4z"/><path fill="#000000" d="M37.3,28.9l0.3-0.3C41.8,24.7,44,20,44,15.2c0-4.4-1.8-8.5-5.2-11.7l-0.4-0.4L38,3.6   c-0.5,0.7-1.1,1.5-1.6,2.2C35.3,7.4,34.1,9,33,10.7c-3.8,6,0.1,14,4,17.9L37.3,28.9z M33.9,11.2c1-1.7,2.2-3.3,3.4-4.8   c0.4-0.6,0.8-1.2,1.3-1.7c2.9,2.9,4.5,6.6,4.5,10.6c0,4.4-1.9,8.6-5.6,12.3C33.9,23.9,30.5,16.5,33.9,11.2z"/><path fill="#000000" d="M39.3,36.4l0.5,0.1c1.3,0.2,2.5,0.3,3.7,0.3c9,0,16-6,16.8-14.6l0.1-0.6l-0.6,0c-0.9,0-1.8,0.1-2.7,0.1   c-2,0-4,0.1-6,0.3c-7,0.6-11.1,8.6-11.8,14L39.3,36.4z M51.2,22.9c1.9-0.2,4-0.2,5.9-0.3c0.7,0,1.4,0,2.1-0.1   c-0.9,6.7-6.1,13.2-15.8,13.2c-1,0-2-0.1-3.1-0.2C41.2,30.6,45,23.4,51.2,22.9z"/><path fill="#000000" d="M62.8,45.7c-0.2-0.6-0.6-1-1.4-1.3c-0.5-0.2-1-0.3-1.4-0.4c-0.4-0.6-1.1-0.8-1.4-0.9   c-0.9-0.3-1.8-0.4-2.7-0.4c-0.5-0.6-1.3-1.3-2.9-1c-0.3,0-0.5,0.1-0.8,0.2c-0.4,0.1-0.8,0.2-1.2,0.3c-0.6,0.2-1,0.9-0.8,1.5   c0.2,0.6,0.9,1,1.5,0.8c0.4-0.1,0.7-0.2,1.1-0.3c0.2,0,0.3-0.1,0.5-0.1c0.4-0.1,0.5,0,0.6,0.1c0.1,0.2,0.2,0.5,0.5,0.7   c0.5,0.4,1,0.3,1.4,0.3c0.7,0,1.4,0.1,2,0.3l0.2,0.3c0.2,0.3,0.5,0.7,1.2,0.7c0,0,0.1,0,0.1,0c-5.5,1.8-9.4,4.3-9.6,4.4   c-4.5,3-13.5,6.3-13.6,6.3c-3.8,1.4-6.9,1.7-9.9,1.1c-3.2-0.6-6.2-2.2-8.2-3.4c-1-0.6-2.2-1.3-3.7-1.4c-1,0-2.1-0.1-3.1,0.2   c-0.5,0.1-0.9,0.3-1.4,0.6c-2.2,0.9-2.4,0.7-2.6,0.2l-3.6-7.6c-0.2-0.4-0.2-0.5,1.1-1.3l0.2-0.1c0.7-0.4,1.7-0.7,2.6-1.1   c0.5-0.2,1-0.3,1.4-0.5l1.6-0.6c0.8-0.3,1.6-0.6,2.4-0.9c2.1-0.8,4.4-0.5,5.9-0.1c1,0.3,2,0.6,3,1c0.7,0.2,1.4,0.5,2.1,0.7   c0.9,0.3,1.7,0.6,2.6,0.9c2.3,0.8,4.6,1.6,7.1,2c0.5,0.1,0.9,0.1,1.4,0.1c0.9,0.1,1.8,0,2.7,0c1-0.1,2-0.2,3-0.4c1-0.1,2-0.3,3-0.4   c0.2,0,0.3,0,0.5,0c1-0.1,1.8,0,2.6,0.1c0.1,0,0.2,0.1,0.2,0.2c0.1,0.2,0,0.3,0,0.5c-0.3,0.4-1.1,0.6-1.8,0.8   c-0.2,0.1-0.5,0.1-0.7,0.2c-2.5,0.8-5.1,1.2-8.7,1.5c-1.1,0.1-2.1,0.1-3,0.1c-0.3,0-0.5,0-0.7,0c-0.3,0-0.7-0.1-1,0   c-0.7,0-1.2,0.6-1.1,1.3c0,0.7,0.6,1.2,1.3,1.1c0.2,0,0.4,0,0.7,0c0.2,0,0.5,0,0.7,0c1,0,2.1,0,3.4-0.1c3.7-0.3,6.6-0.8,9.2-1.6   c0.2-0.1,0.4-0.1,0.6-0.2c1.1-0.3,2.4-0.6,3.1-1.8c0.5-0.8,0.6-1.8,0.3-2.7c-0.3-0.9-1-1.5-1.9-1.7c-1-0.3-2.1-0.3-3.3-0.2   c-0.2,0-0.5,0-0.7,0.1c-1,0.1-2,0.2-3,0.4c-1,0.1-1.9,0.3-2.9,0.3c-0.7,0.1-1.5,0.1-2.3,0c-0.4,0-0.8-0.1-1.2-0.1   c-2.2-0.3-4.4-1.1-6.6-1.9c-0.9-0.3-1.8-0.6-2.7-0.9c-0.7-0.2-1.3-0.4-2-0.7c-1-0.4-2.1-0.7-3.2-1c-1.9-0.5-4.8-0.9-7.5,0.2   c-0.8,0.3-1.6,0.6-2.4,0.9L8,41.6c-0.4,0.2-0.9,0.3-1.3,0.5c-1,0.4-2.1,0.7-3,1.3l-0.2,0.1c-1,0.6-3.2,1.9-2.1,4.3l3.6,7.6   c1.4,2.9,4.4,1.6,5.8,1c0.4-0.2,0.8-0.4,1.1-0.4c0.6-0.2,1.5-0.2,2.3-0.1c0.9,0,1.7,0.6,2.5,1.1c2.2,1.3,5.5,3,9,3.7   c1.1,0.2,2.2,0.3,3.3,0.3c2.5,0,5.1-0.5,7.9-1.6c0.4-0.1,9.4-3.4,14.1-6.6c0,0,4.5-2.9,10.4-4.6c0.5-0.1,0.8-0.5,0.9-0.8   C62.9,46.9,63,46.2,62.8,45.7z"/></g><text x="0" y="79" fill="#000000" font-size="5px" font-weight="bold" font-family="'Helvetica Neue', Helvetica, Arial-Unicode, Arial, Sans-serif">Created by Delwar Hossain</text><text x="0" y="84" fill="#000000" font-size="5px" font-weight="bold" font-family="'Helvetica Neue', Helvetica, Arial-Unicode, Arial, Sans-serif">from the Noun Project</text></svg>