<svg xmlns="http://www.w3.org/2000/svg" xmlns:xlink="http://www.w3.org/1999/xlink" version="1.1" x="0px" y="0px" viewBox="0 0 100 125" enable-background="new 0 0 100 100" xml:space="preserve"><g><path d="M59.828,72.304H40.37c-2.022,0-3.667,1.645-3.667,3.667v2.555c0,2.022,1.645,3.667,3.667,3.667h19.457   c2.022,0,3.667-1.645,3.667-3.667v-2.555C63.495,73.949,61.85,72.304,59.828,72.304z M51.002,74.293h3.523v5.911h-3.523V74.293z    M49.013,80.204h-3.339v-5.911h3.339V80.204z M38.692,78.526v-2.555c0-0.926,0.753-1.678,1.678-1.678h3.315v5.911H40.37   C39.445,80.204,38.692,79.452,38.692,78.526z M61.506,78.526c0,0.926-0.753,1.678-1.678,1.678h-3.314v-5.911h3.314   c0.926,0,1.678,0.753,1.678,1.678V78.526z"/><path d="M76.956,59.929h-0.103v-5.194c0-7.403-6.023-13.425-13.425-13.425h-4.32c-0.663-4.008-3.933-7.145-8.01-7.589v-7.328   c2.168-0.498,3.793-2.434,3.793-4.751c0-2.693-2.191-4.883-4.884-4.883c-2.693,0-4.883,2.19-4.883,4.883   c0,2.385,1.721,4.369,3.984,4.793v7.286c-4.073,0.443-7.342,3.576-8.008,7.589h-4.513c-7.403,0-13.425,6.023-13.425,13.425v5.194   h-0.103c-4.536,0-8.226,3.69-8.226,8.226v3.189c0,4.528,3.69,8.211,8.226,8.211h0.103v2.02C23.162,88.977,29.184,95,36.587,95   h26.84c7.403,0,13.425-6.023,13.425-13.425v-2.02h0.103c4.528,0,8.211-3.684,8.211-8.211v-3.189   C85.167,63.619,81.483,59.929,76.956,59.929z M47.113,21.642c0-1.596,1.298-2.894,2.894-2.894c1.596,0,2.895,1.298,2.895,2.894   c0,1.596-1.298,2.895-2.895,2.895C48.412,24.536,47.113,23.238,47.113,21.642z M50.103,35.652c3.43,0,6.301,2.429,6.989,5.657   H43.114C43.802,38.082,46.673,35.652,50.103,35.652z M23.059,77.566c-3.439,0-6.237-2.791-6.237-6.222v-3.189   c0-3.439,2.798-6.237,6.237-6.237h0.103v15.648H23.059z M73.869,81.575c0,5.758-4.684,10.442-10.442,10.442h-26.84   c-5.758,0-10.442-4.684-10.442-10.442v-26.84c0-5.758,4.684-10.442,10.442-10.442h26.84c5.758,0,10.442,4.684,10.442,10.442V81.575   z M83.178,71.344c0,3.431-2.791,6.222-6.222,6.222h-0.103V61.918h0.103c3.431,0,6.222,2.798,6.222,6.237V71.344z"/><path d="M34.36,22.637c0.549,0,0.994-0.445,0.994-0.994c0-8.08,6.573-14.653,14.653-14.653S64.66,13.562,64.66,21.642   c0,0.549,0.445,0.994,0.994,0.994c0.549,0,0.994-0.445,0.994-0.994C66.649,12.466,59.184,5,50.007,5s-16.642,7.466-16.642,16.642   C33.365,22.192,33.811,22.637,34.36,22.637z"/><path d="M50.007,10.879c-5.934,0-10.762,4.829-10.762,10.763c0,0.549,0.445,0.994,0.994,0.994s0.994-0.445,0.994-0.994   c0-4.838,3.936-8.774,8.774-8.774s8.774,3.936,8.774,8.774c0,0.549,0.445,0.994,0.994,0.994s0.994-0.445,0.994-0.994   C60.77,15.708,55.942,10.879,50.007,10.879z"/><path d="M46.308,60.923c0-4.145-3.372-7.517-7.517-7.517c-4.144,0-7.516,3.372-7.516,7.517s3.372,7.517,7.516,7.517   C42.936,68.44,46.308,65.068,46.308,60.923z M33.263,60.923c0-3.048,2.479-5.528,5.527-5.528s5.528,2.48,5.528,5.528   s-2.48,5.528-5.528,5.528S33.263,63.971,33.263,60.923z"/><path d="M41.731,60.923c0-1.621-1.319-2.94-2.94-2.94c-1.621,0-2.94,1.319-2.94,2.94c0,1.621,1.319,2.94,2.94,2.94   C40.412,63.863,41.731,62.544,41.731,60.923z"/><path d="M61.224,53.406c-4.145,0-7.517,3.372-7.517,7.517s3.372,7.517,7.517,7.517c4.144,0,7.516-3.372,7.516-7.517   S65.368,53.406,61.224,53.406z M61.224,66.451c-3.048,0-5.528-2.48-5.528-5.528s2.48-5.528,5.528-5.528   c3.048,0,5.527,2.48,5.527,5.528S64.272,66.451,61.224,66.451z"/><path d="M61.224,57.984c-1.621,0-2.94,1.319-2.94,2.94s1.319,2.94,2.94,2.94c1.621,0,2.94-1.319,2.94-2.94   S62.844,57.984,61.224,57.984z"/></g><text x="0" y="115" fill="#000000" font-size="5px" font-weight="bold" font-family="'Helvetica Neue', Helvetica, Arial-Unicode, Arial, Sans-serif">Created by Maxim Kulikov</text><text x="0" y="120" fill="#000000" font-size="5px" font-weight="bold" font-family="'Helvetica Neue', Helvetica, Arial-Unicode, Arial, Sans-serif">from the Noun Project</text></svg>