<svg xmlns="http://www.w3.org/2000/svg" xmlns:xlink="http://www.w3.org/1999/xlink" version="1.1" x="0px" y="0px" viewBox="0 0 100 125" enable-background="new 0 0 100 100" xml:space="preserve"><path d="M87.917,43.5c-2.886,0-5.336,1.892-6.182,4.5H78.25V20.167c0-1.104-0.896-2-2-2h-52c-1.104,0-2,0.896-2,2V48h-3.985  c-0.846-2.608-3.296-4.5-6.182-4.5c-3.584,0-6.5,2.916-6.5,6.5s2.916,6.5,6.5,6.5c2.886,0,5.336-1.892,6.182-4.5h3.985v27.833  c0,1.104,0.896,2,2,2h52c1.104,0,2-0.896,2-2V52h3.485c0.846,2.608,3.296,4.5,6.182,4.5c3.584,0,6.5-2.916,6.5-6.5  S91.5,43.5,87.917,43.5z M12.083,52.5c-1.378,0-2.5-1.122-2.5-2.5s1.122-2.5,2.5-2.5s2.5,1.122,2.5,2.5S13.462,52.5,12.083,52.5z   M74.25,77.833h-48V22.167h48V77.833z M87.917,52.5c-1.378,0-2.5-1.122-2.5-2.5s1.122-2.5,2.5-2.5s2.5,1.122,2.5,2.5  S89.295,52.5,87.917,52.5z M50.25,71.333c11.763,0,21.333-9.57,21.333-21.333s-9.57-21.333-21.333-21.333S28.917,38.237,28.917,50  S38.487,71.333,50.25,71.333z M50.25,69.333c-10.323,0-18.757-8.139-19.283-18.333h8.829v10.351c0,0.357,0.19,0.688,0.5,0.866  c0.155,0.089,0.327,0.134,0.5,0.134s0.345-0.044,0.5-0.134l18.161-10.485v9.619c0,0.552,0.448,1,1,1s1-0.448,1-1V51h8.076  C69.007,61.195,60.573,69.333,50.25,69.333z M41.796,59.619V40.381L58.457,50L41.796,59.619z M50.25,30.667  c10.323,0,18.757,8.139,19.283,18.333h-8.076V38.649c0-0.552-0.448-1-1-1s-1,0.448-1,1v9.619L41.296,37.783  c-0.31-0.179-0.69-0.179-1,0s-0.5,0.509-0.5,0.866V49h-8.829C31.493,38.805,39.927,30.667,50.25,30.667z"/><text x="0" y="115" fill="#000000" font-size="5px" font-weight="bold" font-family="'Helvetica Neue', Helvetica, Arial-Unicode, Arial, Sans-serif">Created by H Alberto Gongora</text><text x="0" y="120" fill="#000000" font-size="5px" font-weight="bold" font-family="'Helvetica Neue', Helvetica, Arial-Unicode, Arial, Sans-serif">from the Noun Project</text></svg>