<svg xmlns="http://www.w3.org/2000/svg" xmlns:xlink="http://www.w3.org/1999/xlink" version="1.1" x="0px" y="0px" viewBox="0 0 100 125" enable-background="new 0 0 100 100" xml:space="preserve"><path d="M66.725,12.849c-4.74-1.91-9.767-2.878-14.936-2.878c-20.17,0-37.248,15.072-39.723,35.057  c-0.203,1.634-0.306,3.308-0.306,4.974c0,22.071,17.957,40.027,40.029,40.027S91.82,72.073,91.82,50.002  C91.82,33.563,81.971,18.979,66.725,12.849z M51.789,87.029c-20.418,0-37.029-16.61-37.029-37.027c0-1.543,0.095-3.092,0.284-4.604  C17.333,26.912,33.13,12.971,51.79,12.971c4.783,0,9.433,0.895,13.815,2.661c14.104,5.672,23.215,19.163,23.215,34.37  C88.82,70.419,72.208,87.029,51.789,87.029z M39.907,34.577c-0.603-0.568-1.551-0.541-2.121,0.061L24.257,48.966  c-0.545,0.578-0.545,1.481,0,2.06l13.529,14.336c0.295,0.313,0.692,0.471,1.091,0.471c0.369,0,0.739-0.137,1.029-0.409  c0.603-0.567,0.63-1.519,0.062-2.12L27.411,49.997l12.557-13.299C40.536,36.095,40.509,35.146,39.907,34.577z M77.605,48.975  L64.077,34.639c-0.568-0.603-1.517-0.63-2.12-0.062c-0.604,0.568-0.63,1.518-0.063,2.12l12.559,13.306L61.896,63.302  c-0.568,0.603-0.541,1.552,0.061,2.121c0.29,0.272,0.66,0.409,1.029,0.409c0.398,0,0.797-0.158,1.092-0.471l13.529-14.327  C78.152,50.456,78.152,49.552,77.605,48.975z M56.898,34.455c-0.773-0.297-1.643,0.089-1.938,0.863l-10.857,28.29  c-0.297,0.773,0.089,1.642,0.863,1.938c0.177,0.067,0.358,0.101,0.537,0.101c0.603,0,1.172-0.367,1.401-0.963l10.857-28.29  C58.059,35.62,57.672,34.752,56.898,34.455z"/><text x="0" y="115" fill="#000000" font-size="5px" font-weight="bold" font-family="'Helvetica Neue', Helvetica, Arial-Unicode, Arial, Sans-serif">Created by IconDots</text><text x="0" y="120" fill="#000000" font-size="5px" font-weight="bold" font-family="'Helvetica Neue', Helvetica, Arial-Unicode, Arial, Sans-serif">from the Noun Project</text></svg>