<svg xmlns:dc="http://purl.org/dc/elements/1.1/" xmlns:cc="http://creativecommons.org/ns#" xmlns:rdf="http://www.w3.org/1999/02/22-rdf-syntax-ns#" xmlns:svg="http://www.w3.org/2000/svg" xmlns="http://www.w3.org/2000/svg" xmlns:sodipodi="http://sodipodi.sourceforge.net/DTD/sodipodi-0.dtd" xmlns:inkscape="http://www.inkscape.org/namespaces/inkscape" version="1.1" x="0px" y="0px" viewBox="0 0 100 125"><g transform="translate(0,-952.36217)"><path style="font-size:medium;font-style:normal;font-variant:normal;font-weight:normal;font-stretch:normal;text-indent:0;text-align:start;text-decoration:none;line-height:normal;letter-spacing:normal;word-spacing:normal;text-transform:none;direction:ltr;block-progression:tb;writing-mode:lr-tb;text-anchor:start;baseline-shift:baseline;opacity:1;color:#000000;fill:#000000;fill-opacity:1;stroke:none;stroke-width:4;marker:none;visibility:visible;display:inline;overflow:visible;enable-background:accumulate;font-family:Sans;-inkscape-font-specification:Sans" d="M 33.8125 20 A 2.0002 2.0002 0 0 0 32 22 L 32 30 L 24 30 A 2.0002 2.0002 0 0 0 22 32 L 22 39 L 16 39 A 2.0002 2.0002 0 0 0 14 41 L 14 78 A 2.0002 2.0002 0 0 0 16 80 L 84 80 A 2.0002 2.0002 0 0 0 86 78 L 86 41 A 2.0002 2.0002 0 0 0 84 39 L 78 39 L 78 32 A 2.0002 2.0002 0 0 0 76 30 L 68 30 L 68 22 A 2.0002 2.0002 0 0 0 66 20 L 34 20 A 2.0002 2.0002 0 0 0 33.8125 20 z M 36 24 L 64 24 L 64 32 A 2.0002 2.0002 0 0 0 66 34 L 74 34 L 74 41 A 2.0002 2.0002 0 0 0 76 43 L 82 43 L 82 76 L 75 76 L 75 58 A 2.0002 2.0002 0 0 0 72.78125 55.96875 A 2.0002 2.0002 0 0 0 71 58 L 71 76 L 66 76 L 66 58 A 2.0002 2.0002 0 0 0 63.78125 55.96875 A 2.0002 2.0002 0 0 0 62 58 L 62 76 L 57 76 L 57 58 A 2.0002 2.0002 0 0 0 54.78125 55.96875 A 2.0002 2.0002 0 0 0 53 58 L 53 76 L 47 76 L 47 58 A 2.0002 2.0002 0 0 0 44.78125 55.96875 A 2.0002 2.0002 0 0 0 43 58 L 43 76 L 38 76 L 38 58 A 2.0002 2.0002 0 0 0 35.78125 55.96875 A 2.0002 2.0002 0 0 0 34 58 L 34 76 L 29 76 L 29 58 A 2.0002 2.0002 0 0 0 26.78125 55.96875 A 2.0002 2.0002 0 0 0 25 58 L 25 76 L 18 76 L 18 43 L 24 43 A 2.0002 2.0002 0 0 0 26 41 L 26 34 L 34 34 A 2.0002 2.0002 0 0 0 36 32 L 36 24 z " transform="translate(0,952.36217)"/></g><text x="0" y="115" fill="#000000" font-size="5px" font-weight="bold" font-family="'Helvetica Neue', Helvetica, Arial-Unicode, Arial, Sans-serif">Created by emma mitchell</text><text x="0" y="120" fill="#000000" font-size="5px" font-weight="bold" font-family="'Helvetica Neue', Helvetica, Arial-Unicode, Arial, Sans-serif">from the Noun Project</text></svg>