<?xml version="1.0" encoding="utf-8"?>
<!-- Generator: Adobe Illustrator 21.0.0, SVG Export Plug-In . SVG Version: 6.00 Build 0)  -->
<svg version="1.1" xmlns="http://www.w3.org/2000/svg" xmlns:xlink="http://www.w3.org/1999/xlink" x="0px" y="0px"
	 viewBox="0 0 2834.6 2834.6" style="enable-background:new 0 0 2834.6 2834.6;" xml:space="preserve">
<style type="text/css">
	.st0{display:none;}
	.st1{display:inline;fill:#E8CD9B;}
	.st2{fill:#E8CD9B;}
</style>
<g id="Layer_1" class="st0">
	<path class="st1" d="M2781,2183.5c-27.6,0-49.9,22.3-49.9,49.9c0,276.5-225,501.5-501.5,501.5c-27.6,0-49.9,22.3-49.9,49.9
		s22.3,49.9,49.9,49.9c331.6,0,601.3-269.7,601.3-601.3C2830.9,2205.8,2808.6,2183.5,2781,2183.5z"/>
	<path class="st1" d="M2229.6,2650.8c230.2,0,417.5-187.3,417.5-417.5c0-27.6-22.3-49.9-49.9-49.9s-49.9,22.3-49.9,49.9
		c0,175.2-142.5,317.7-317.7,317.7c-27.6,0-49.9,22.3-49.9,49.9S2202.1,2650.8,2229.6,2650.8z"/>
	<path class="st1" d="M2229.6,2467c128.9,0,233.7-104.8,233.7-233.7c0-27.6-22.3-49.9-49.9-49.9s-49.9,22.3-49.9,49.9
		c0,73.8-60.1,133.9-133.9,133.9c-27.6,0-49.9,22.3-49.9,49.9S2202.1,2467,2229.6,2467z"/>
	<path class="st1" d="M2201,2275.3c9.7,9.7,22.5,14.6,35.3,14.6c12.8,0,25.5-4.9,35.3-14.6c19.5-19.5,19.5-51.1,0-70.6l-18.8-18.8
		l268-268c19.5-19.5,19.5-51.1,0-70.6c-132.1-132.1-322.7-170.6-489-115.8l-82.4-82.4l129.3-129.3c9.4-9.4,14.6-22,14.6-35.3
		s-5.3-25.9-14.6-35.3l-329.3-329.3l131.3-131.3l162.1,162.1c9.7,9.7,22.5,14.6,35.3,14.6c12.8,0,25.5-4.9,35.3-14.6l664.3-664.3
		c9.4-9.4,14.6-22,14.6-35.3s-5.3-25.9-14.6-35.3L2383,21.4c-19.5-19.5-51.1-19.5-70.6,0l-664.3,664.3c-9.4,9.4-14.6,22-14.6,35.3
		s5.3,25.9,14.6,35.3l162.1,162.1l-131.3,131.3l-252.3-252.3c-97.4-97.4-249.8-107-358.1-29L952.7,652.6c-9.4-9.4-22-14.6-35.3-14.6
		s-25.9,5.3-35.3,14.6L648.9,885.9c-19.5,19.5-19.5,51.1,0,70.6l115.7,115.7c-33.9,46.9-52.2,103-52.2,162
		c0,74.1,28.8,143.7,81.2,196.1l252.3,252.3l-131.4,131.4l-162.1-162.1c-19.5-19.5-51.1-19.5-70.6,0L17.6,2316.2
		c-19.5,19.5-19.5,51.1,0,70.6l394.7,394.7c9.7,9.7,22.5,14.6,35.3,14.6s25.5-4.9,35.3-14.6l664.3-664.3c19.5-19.5,19.5-51.1,0-70.6
		l-162.1-162.1l131.4-131.4l329.3,329.3c9.7,9.7,22.5,14.6,35.3,14.6c12.8,0,25.5-4.9,35.3-14.6l129.3-129.3l82.4,82.4
		c-54.8,166.3-16.3,357,115.8,489c9.7,9.7,22.5,14.6,35.3,14.6c12.8,0,25.5-4.9,35.3-14.6l268-268L2201,2275.3z M2347.7,127.2
		l324.2,324.2L2299.2,824l-324.2-324.2L2347.7,127.2z M1754,720.9l150.5-150.5l324.2,324.2l-150.5,150.5L1754,720.9z M447.6,2675.6
		l-324.2-324.2l372.6-372.6L820.2,2303L447.6,2675.6z M1041.3,2081.9l-150.5,150.5l-324.2-324.2l150.5-150.5L1041.3,2081.9z
		 M754.7,921.1l162.7-162.7l77.9,77.9L832.6,999L754.7,921.1z M812.1,1234.2c0-47.4,18.5-92,52-125.6l240.7-240.7
		c34.6-34.6,80.1-51.9,125.6-51.9c34.3,0,68.7,9.9,98.3,29.6l-487,487C822.5,1303.6,812.1,1269.7,812.1,1234.2z M909.9,1405.5
		l491.9-491.8l434.8,434.8l-491.9,491.9L909.9,1405.5z M1481,1976.6l-65.7-65.7l491.9-491.9l65.7,65.7L1481,1976.6z M1716.2,1882.6
		l162.7-162.7l56.2,56.2c-32.5,19.6-63.3,43.4-91.3,71.4c-28,28-51.8,58.8-71.4,91.3L1716.2,1882.6z M1881.3,2416.4
		c-113.8-148.5-102.8-362.6,33-498.4c73.9-73.9,170.9-110.8,268-110.8c81.3,0,162.7,26,230.4,77.9L1881.3,2416.4z"/>
</g>
<g id="Layer_2">
	<g>
		<path class="st2" d="M2834.6,1764v-260c0-31.9-25.9-57.8-57.8-57.8h-173.4V983.9c0-31.9-25.9-57.8-57.8-57.8H2199
			c-31.9,0-57.8,25.9-57.8,57.8v462.3h-173.4V319.4c0-31.9-25.9-57.8-57.8-57.8H927.7c-31.9,0-57.8,25.9-57.8,57.8v1126.8H696.5
			V983.9c0-31.9-25.9-57.8-57.8-57.8H292c-31.9,0-57.8,25.9-57.8,57.8v462.3H60.9c-31.9,0-57.8,25.9-57.8,57.8v260
			c0,31.9,25.9,57.8,57.8,57.8H162c-9.3,22.2-14.5,46.6-14.5,72.2v57.8c0,25.6,5.2,50,14.5,72.2H60.9c-31.9,0-57.8,25.9-57.8,57.8
			v433.4c0,31.9,25.9,57.8,57.8,57.8h2716c31.9,0,57.8-25.9,57.8-57.8v-433.4c0-31.9-25.9-57.8-57.8-57.8h-101.1
			c9.3-22.2,14.5-46.6,14.5-72.2v-57.8c0-25.6-5.2-50-14.5-72.2h101.1C2808.8,1821.8,2834.6,1796,2834.6,1764z M2256.8,1041.7h231.1
			v404.5h-231.1V1041.7z M985.5,1243h384.3c31.9,0,57.8-25.9,57.8-57.8c0-31.9-25.9-57.8-57.8-57.8H985.5V377.2h866.8v1069.1H985.5
			V1243z M349.8,1041.7H581v404.5H349.8V1041.7z M263.1,1951.9v-57.8c0-39.8,32.4-72.2,72.2-72.2s72.2,32.4,72.2,72.2v57.8
			c0,39.8-32.4,72.2-72.2,72.2S263.1,1991.7,263.1,1951.9z M2329,2024.1h-375.7c9.3-22.2,14.5-46.6,14.5-72.2v-57.8
			c0-25.6-5.2-50-14.5-72.2H2329c-9.3,22.2-14.5,46.6-14.5,72.2v57.8C2314.6,1977.4,2319.7,2001.8,2329,2024.1z M1852.3,1894.1v57.8
			c0,39.8-32.4,72.2-72.2,72.2c-39.8,0-72.2-32.4-72.2-72.2v-57.8c0-39.8,32.4-72.2,72.2-72.2
			C1819.9,1821.8,1852.3,1854.2,1852.3,1894.1z M1606.7,2024.1H1231c9.3-22.2,14.5-46.6,14.5-72.2v-57.8c0-25.6-5.2-50-14.5-72.2
			h375.7c-9.3,22.2-14.5,46.6-14.5,72.2v57.8C1592.2,1977.4,1597.4,2001.8,1606.7,2024.1z M1129.9,1894.1v57.8
			c0,39.8-32.4,72.2-72.2,72.2c-39.8,0-72.2-32.4-72.2-72.2v-57.8c0-39.8,32.4-72.2,72.2-72.2
			C1097.5,1821.8,1129.9,1854.2,1129.9,1894.1z M884.4,2024.1H508.7c9.3-22.2,14.5-46.6,14.5-72.2v-57.8c0-25.6-5.2-50-14.5-72.2
			h375.7c-9.3,22.2-14.5,46.6-14.5,72.2v57.8C869.9,1977.4,875.1,2001.8,884.4,2024.1z M2719.1,2457.5H118.7v-317.8h2600.4V2457.5z
			 M2574.6,1894.1v57.8c0,39.8-32.4,72.2-72.2,72.2s-72.2-32.4-72.2-72.2v-57.8c0-39.8,32.4-72.2,72.2-72.2
			S2574.6,1854.2,2574.6,1894.1z M2719.1,1706.3H118.7v-144.5h2600.4V1706.3z"/>
		<path class="st2" d="M1606.7,1127.4h-5.8c-31.9,0-57.8,25.9-57.8,57.8c0,31.9,25.9,57.8,57.8,57.8h5.8c31.9,0,57.8-25.9,57.8-57.8
			C1664.5,1153.3,1638.6,1127.4,1606.7,1127.4z"/>
	</g>
</g>
</svg>
