<?xml version="1.0" encoding="utf-8"?>
<!-- Generator: Adobe Illustrator 21.0.0, SVG Export Plug-In . SVG Version: 6.00 Build 0)  -->
<svg version="1.1" xmlns="http://www.w3.org/2000/svg" xmlns:xlink="http://www.w3.org/1999/xlink" x="0px" y="0px"
	 viewBox="0 0 2834.6 2834.6" style="enable-background:new 0 0 2834.6 2834.6;" xml:space="preserve">
<style type="text/css">
	.st0{display:none;}
	.st1{display:inline;fill:#E8CD9B;}
	.st2{display:inline;}
	.st3{fill:#E8CD9B;}
</style>
<g id="Layer_1" class="st0">
	<path class="st1" d="M2781,2183.5c-27.6,0-49.9,22.3-49.9,49.9c0,276.5-225,501.5-501.5,501.5c-27.6,0-49.9,22.3-49.9,49.9
		s22.3,49.9,49.9,49.9c331.6,0,601.3-269.7,601.3-601.3C2830.9,2205.8,2808.6,2183.5,2781,2183.5z"/>
	<path class="st1" d="M2229.6,2650.8c230.2,0,417.5-187.3,417.5-417.5c0-27.6-22.3-49.9-49.9-49.9s-49.9,22.3-49.9,49.9
		c0,175.2-142.5,317.7-317.7,317.7c-27.6,0-49.9,22.3-49.9,49.9S2202.1,2650.8,2229.6,2650.8z"/>
	<path class="st1" d="M2229.6,2467c128.9,0,233.7-104.8,233.7-233.7c0-27.6-22.3-49.9-49.9-49.9s-49.9,22.3-49.9,49.9
		c0,73.8-60.1,133.9-133.9,133.9c-27.6,0-49.9,22.3-49.9,49.9S2202.1,2467,2229.6,2467z"/>
	<path class="st1" d="M2201,2275.3c9.7,9.7,22.5,14.6,35.3,14.6c12.8,0,25.5-4.9,35.3-14.6c19.5-19.5,19.5-51.1,0-70.6l-18.8-18.8
		l268-268c19.5-19.5,19.5-51.1,0-70.6c-132.1-132.1-322.7-170.6-489-115.8l-82.4-82.4l129.3-129.3c9.4-9.4,14.6-22,14.6-35.3
		s-5.3-25.9-14.6-35.3l-329.3-329.3l131.3-131.3l162.1,162.1c9.7,9.7,22.5,14.6,35.3,14.6c12.8,0,25.5-4.9,35.3-14.6l664.3-664.3
		c9.4-9.4,14.6-22,14.6-35.3s-5.3-25.9-14.6-35.3L2383,21.4c-19.5-19.5-51.1-19.5-70.6,0l-664.3,664.3c-9.4,9.4-14.6,22-14.6,35.3
		s5.3,25.9,14.6,35.3l162.1,162.1l-131.3,131.3l-252.3-252.3c-97.4-97.4-249.8-107-358.1-29L952.7,652.6c-9.4-9.4-22-14.6-35.3-14.6
		s-25.9,5.3-35.3,14.6L648.9,885.9c-19.5,19.5-19.5,51.1,0,70.6l115.7,115.7c-33.9,46.9-52.2,103-52.2,162
		c0,74.1,28.8,143.7,81.2,196.1l252.3,252.3l-131.4,131.4l-162.1-162.1c-19.5-19.5-51.1-19.5-70.6,0L17.6,2316.2
		c-19.5,19.5-19.5,51.1,0,70.6l394.7,394.7c9.7,9.7,22.5,14.6,35.3,14.6s25.5-4.9,35.3-14.6l664.3-664.3c19.5-19.5,19.5-51.1,0-70.6
		l-162.1-162.1l131.4-131.4l329.3,329.3c9.7,9.7,22.5,14.6,35.3,14.6c12.8,0,25.5-4.9,35.3-14.6l129.3-129.3l82.4,82.4
		c-54.8,166.3-16.3,357,115.8,489c9.7,9.7,22.5,14.6,35.3,14.6c12.8,0,25.5-4.9,35.3-14.6l268-268L2201,2275.3z M2347.7,127.2
		l324.2,324.2L2299.2,824l-324.2-324.2L2347.7,127.2z M1754,720.9l150.5-150.5l324.2,324.2l-150.5,150.5L1754,720.9z M447.6,2675.6
		l-324.2-324.2l372.6-372.6L820.2,2303L447.6,2675.6z M1041.3,2081.9l-150.5,150.5l-324.2-324.2l150.5-150.5L1041.3,2081.9z
		 M754.7,921.1l162.7-162.7l77.9,77.9L832.6,999L754.7,921.1z M812.1,1234.2c0-47.4,18.5-92,52-125.6l240.7-240.7
		c34.6-34.6,80.1-51.9,125.6-51.9c34.3,0,68.7,9.9,98.3,29.6l-487,487C822.5,1303.6,812.1,1269.7,812.1,1234.2z M909.9,1405.5
		l491.9-491.8l434.8,434.8l-491.9,491.9L909.9,1405.5z M1481,1976.6l-65.7-65.7l491.9-491.9l65.7,65.7L1481,1976.6z M1716.2,1882.6
		l162.7-162.7l56.2,56.2c-32.5,19.6-63.3,43.4-91.3,71.4c-28,28-51.8,58.8-71.4,91.3L1716.2,1882.6z M1881.3,2416.4
		c-113.8-148.5-102.8-362.6,33-498.4c73.9-73.9,170.9-110.8,268-110.8c81.3,0,162.7,26,230.4,77.9L1881.3,2416.4z"/>
</g>
<g id="Layer_2" class="st0">
	<g class="st2">
		<path class="st3" d="M2834.6,1764v-260c0-31.9-25.9-57.8-57.8-57.8h-173.4V983.9c0-31.9-25.9-57.8-57.8-57.8H2199
			c-31.9,0-57.8,25.9-57.8,57.8v462.3h-173.4V319.4c0-31.9-25.9-57.8-57.8-57.8H927.7c-31.9,0-57.8,25.9-57.8,57.8v1126.8H696.5
			V983.9c0-31.9-25.9-57.8-57.8-57.8H292c-31.9,0-57.8,25.9-57.8,57.8v462.3H60.9c-31.9,0-57.8,25.9-57.8,57.8v260
			c0,31.9,25.9,57.8,57.8,57.8H162c-9.3,22.2-14.5,46.6-14.5,72.2v57.8c0,25.6,5.2,50,14.5,72.2H60.9c-31.9,0-57.8,25.9-57.8,57.8
			v433.4c0,31.9,25.9,57.8,57.8,57.8h2716c31.9,0,57.8-25.9,57.8-57.8v-433.4c0-31.9-25.9-57.8-57.8-57.8h-101.1
			c9.3-22.2,14.5-46.6,14.5-72.2v-57.8c0-25.6-5.2-50-14.5-72.2h101.1C2808.8,1821.8,2834.6,1796,2834.6,1764z M2256.8,1041.7h231.1
			v404.5h-231.1V1041.7z M985.5,1243h384.3c31.9,0,57.8-25.9,57.8-57.8c0-31.9-25.9-57.8-57.8-57.8H985.5V377.2h866.8v1069.1H985.5
			V1243z M349.8,1041.7H581v404.5H349.8V1041.7z M263.1,1951.9v-57.8c0-39.8,32.4-72.2,72.2-72.2s72.2,32.4,72.2,72.2v57.8
			c0,39.8-32.4,72.2-72.2,72.2S263.1,1991.7,263.1,1951.9z M2329,2024.1h-375.7c9.3-22.2,14.5-46.6,14.5-72.2v-57.8
			c0-25.6-5.2-50-14.5-72.2H2329c-9.3,22.2-14.5,46.6-14.5,72.2v57.8C2314.6,1977.4,2319.7,2001.8,2329,2024.1z M1852.3,1894.1v57.8
			c0,39.8-32.4,72.2-72.2,72.2c-39.8,0-72.2-32.4-72.2-72.2v-57.8c0-39.8,32.4-72.2,72.2-72.2
			C1819.9,1821.8,1852.3,1854.2,1852.3,1894.1z M1606.7,2024.1H1231c9.3-22.2,14.5-46.6,14.5-72.2v-57.8c0-25.6-5.2-50-14.5-72.2
			h375.7c-9.3,22.2-14.5,46.6-14.5,72.2v57.8C1592.2,1977.4,1597.4,2001.8,1606.7,2024.1z M1129.9,1894.1v57.8
			c0,39.8-32.4,72.2-72.2,72.2c-39.8,0-72.2-32.4-72.2-72.2v-57.8c0-39.8,32.4-72.2,72.2-72.2
			C1097.5,1821.8,1129.9,1854.2,1129.9,1894.1z M884.4,2024.1H508.7c9.3-22.2,14.5-46.6,14.5-72.2v-57.8c0-25.6-5.2-50-14.5-72.2
			h375.7c-9.3,22.2-14.5,46.6-14.5,72.2v57.8C869.9,1977.4,875.1,2001.8,884.4,2024.1z M2719.1,2457.5H118.7v-317.8h2600.4V2457.5z
			 M2574.6,1894.1v57.8c0,39.8-32.4,72.2-72.2,72.2s-72.2-32.4-72.2-72.2v-57.8c0-39.8,32.4-72.2,72.2-72.2
			S2574.6,1854.2,2574.6,1894.1z M2719.1,1706.3H118.7v-144.5h2600.4V1706.3z"/>
		<path class="st3" d="M1606.7,1127.4h-5.8c-31.9,0-57.8,25.9-57.8,57.8c0,31.9,25.9,57.8,57.8,57.8h5.8c31.9,0,57.8-25.9,57.8-57.8
			C1664.5,1153.3,1638.6,1127.4,1606.7,1127.4z"/>
	</g>
</g>
<g id="Layer_3" class="st0">
	<path class="st1" d="M2647.5,1395l-22.9-13.1l0,0l-295.1-168.6V902.5l295.1-168.6l-45.1-78.9L2284,823.9l-272.6-155.7V357.4
		l295.1-168.6l-45.1-78.9L1966,278.7l-136.3-77.9l-136.3-77.9V13h-90.9v109.9L1330,278.7L1012,97L648.6,304.7v363.4L376,823.8
		L80.5,655l-45.1,78.9l295.1,168.7V1266L694,1473.6l363.4-207.7V902.5L1330,746.8l272.6,155.7v310.7l-318,181.7v363.4l-318,181.7
		v208.1h90.9v-155.4l272.6-155.8l136.3,77.9l136.3,77.9v64.6h90.9v-64.5l272.6-155.7l318,181.7l363.4-207.7V1395z M2238.6,1213.3
		l-136.3,77.9L1966,1369l-136.3-77.9l-136.3-77.9V902.5l136.3-77.9l136.3-77.9l272.6,155.8V1213.3z M739.4,357.4L1012,201.6
		l272.6,155.8v310.7L1012,823.9L875.7,746l-136.3-77.9V357.4z M966.6,1213.3L694,1369l-272.6-155.8V902.5L694,746.7l136.3,77.9
		l136.3,77.9V1213.3z M1375.4,357.4L1648,201.6l136.3,77.9l136.3,77.9v310.7l-136.3,77.9L1648,823.8L1375.4,668V357.4z
		 M1375.4,1447.7l272.6-155.8l136.3,77.9l136.3,77.9v310.7L1648,1914.1l-136.3-77.9l-136.3-77.9V1447.7z M2284,1914.2l-272.6-155.8
		v-310.7l136.3-77.9l136.3-77.9l272.6,155.8v310.7L2284,1914.2z"/>
	<path class="st1" d="M2104,2337.4c-34.2-11.4-72.1-8.1-103.8,9.2l-99.7,54.5l13.7-40.8c12.9-38.4,6.6-81-17.1-114
		c-23.7-32.9-62-52.6-102.6-52.6c-52,0-98,31.2-117.3,79.4l-59.1,147.7H1478l-2.5-1.2l98.3-52.2c59.1-31.3,88-100.6,68.5-164.6
		c-11.2-36.9-36.3-67-70.8-84.5c-34.4-17.5-73.5-20-110-7.3l-372.7,130.7l-135,88.2H649.6v-90.9h-637v590.6h637v-80.9l172.8,34.6
		l604,0.9l458.8-91.8l235.4-114.5c63.4-31.3,90.2-106.3,61.1-170.8C2166.6,2374.4,2138.4,2348.9,2104,2337.4z M1761.7,2306.8
		c9.7-24.4,46.4-28.8,61.7-7.5c6.7,9.4,8.5,21,4.8,32l-30.1,89.5h-82L1761.7,2306.8z M558.7,2738.8H103.4v-408.9h455.3V2738.8z
		 M2080.3,2496.6l-218.9,108l-444,88.8H835.7l-186.2-37.3v-235.3h331.8l143-95.3l367.3-128.9c12.9-4.5,26.7-3.6,38.8,2.6
		c12.2,6.2,21,16.8,25,29.8c6.8,22.6-3.3,47-24.2,58.1l-253.9,135l179.2,89.6h431.2l156.1-85.3c9.7-5.3,20.9-6.5,31.4-2.8
		c10.5,3.5,18.9,11,23.5,21.2C2107.6,2464.3,2099.5,2487.1,2080.3,2496.6z"/>
	<rect x="2374.9" y="1466.8" class="st1" width="90.9" height="90.9"/>
	<rect x="2374.9" y="1648.5" class="st1" width="90.9" height="90.9"/>
	<rect x="1784.3" y="921.6" class="st1" width="90.9" height="90.9"/>
	<rect x="1784.3" y="1103.3" class="st1" width="90.9" height="90.9"/>
	<rect x="784.9" y="921.6" class="st1" width="90.9" height="90.9"/>
	<rect x="784.9" y="1103.3" class="st1" width="90.9" height="90.9"/>
	<rect x="1102.9" y="376.4" class="st1" width="90.9" height="90.9"/>
	<rect x="1102.9" y="558.2" class="st1" width="90.9" height="90.9"/>
	<rect x="2738.3" y="2011.9" class="st1" width="90.9" height="90.9"/>
	<rect x="2647.5" y="1921.1" class="st1" width="90.9" height="90.9"/>
	<rect x="2556.6" y="2011.9" class="st1" width="90.9" height="90.9"/>
	<rect x="2647.5" y="2102.8" class="st1" width="90.9" height="90.9"/>
	<rect x="466.8" y="103.9" class="st1" width="90.9" height="90.9"/>
	<rect x="376" y="13" class="st1" width="90.9" height="90.9"/>
	<rect x="285.1" y="103.9" class="st1" width="90.9" height="90.9"/>
	<rect x="376" y="194.7" class="st1" width="90.9" height="90.9"/>
	<rect x="1057.4" y="1557.6" class="st1" width="90.9" height="90.9"/>
	<rect x="966.6" y="1466.8" class="st1" width="90.9" height="90.9"/>
	<rect x="875.7" y="1557.6" class="st1" width="90.9" height="90.9"/>
	<rect x="966.6" y="1648.5" class="st1" width="90.9" height="90.9"/>
	<rect x="2511.2" y="331" class="st1" width="90.9" height="90.9"/>
	<rect x="2420.3" y="240.1" class="st1" width="90.9" height="90.9"/>
	<rect x="2329.5" y="331" class="st1" width="90.9" height="90.9"/>
	<rect x="2420.3" y="421.9" class="st1" width="90.9" height="90.9"/>
</g>
<g id="Layer_4" class="st0">
	<g class="st2">
		<path class="st3" d="M1802.8,1097.5c8.8,4.3,157.9,76.8,317.7,76.8c66.3,0,134.5-12.5,195.1-47.5c206.9-119.5,230.1-445,231-458.8
			c1.5-23.9-11.5-46.4-32.9-57c-12.4-6.1-305.9-148.8-512.8-29.3c-206.9,119.5-230.1,445-231,458.8
			C1768.3,1064.4,1781.3,1086.9,1802.8,1097.5z M2060.2,684.5c116-67,287.6-12.9,363,16.7c-12,80.1-51,255.7-167,322.7
			c-86.1,49.7-202.8,32.8-288.1,8.6l194-112c28.4-16.4,38.1-52.7,21.7-81.1c-16.4-28.4-52.7-38.1-81.1-21.7l-194,112
			C1930.5,843.8,1974.1,734.3,2060.2,684.5z"/>
		<path class="st3" d="M2315.6,1383.4c-171.1-98.8-401.5-18.3-483.1,16l-309.2-178.5v-357c70.5-53.5,255.3-212.8,255.3-410.4
			c0-238.9-270.3-421.8-281.8-429.5c-19.9-13.3-45.9-13.3-65.9,0c-11.5,7.7-281.8,190.5-281.8,429.5
			c0,197.6,184.9,356.9,255.3,410.4v288.4L1154.8,1008c-11.1-87.8-56.6-327.5-227.7-426.3C720.1,462.2,426.6,604.9,414.2,611
			c-21.5,10.6-34.5,33.1-32.9,57c0.9,13.8,24.1,339.3,231,458.8c60.7,35,128.8,47.5,195.1,47.5c120.7,0,235.3-41.4,287.9-63.5
			l249.8,144.2l-249.8,144.2c-81.6-34.3-311.9-114.8-483.1-15.9c-206.9,119.5-230.1,445-231,458.8c-1.5,23.9,11.5,46.4,32.9,57
			c8.8,4.3,157.9,76.8,317.7,76.8c66.3,0,134.5-12.5,195.1-47.5c171.1-98.8,216.6-338.6,227.7-426.3l249.8-144.2v1063
			c-278.4,18.7-488.7,167.6-488.7,354.3c0,32.8,26.6,59.4,59.4,59.4h977.3c32.8,0,59.4-26.6,59.4-59.4
			c0-186.7-210.3-335.6-488.7-354.3v-1063l249.8,144.2c11.1,87.8,56.6,327.5,227.7,426.3c60.7,35,128.8,47.5,195.1,47.5
			c159.8,0,308.9-72.5,317.7-76.8c21.5-10.6,34.5-33.1,32.9-57C2545.7,1828.3,2522.5,1502.8,2315.6,1383.4z M1268,453.4
			c0-134.2,133-255.9,196.3-306.2c74.8,59.2,195.7,181.3,195.7,306.2c0,99.4-73,192-136.6,253.8V483.1c0-32.8-26.6-59.4-59.4-59.4
			c-32.8,0-59.4,26.6-59.4,59.4v224.3C1338.1,642,1268,548.6,1268,453.4z M671.7,1024c-116.2-67.1-155.1-243.2-167.1-323.1
			c88.7-35.2,254.8-78.8,363-16.3c86.1,49.7,129.8,159.2,151.5,245.2l-194-112c-28.4-16.4-64.7-6.7-81.1,21.7
			c-16.4,28.4-6.7,64.7,21.7,81.1l194.2,112.1C870.1,1057.6,754.1,1071.5,671.7,1024z M867.7,1825.6c-116,67-287.6,12.9-363-16.7
			c12-80.1,51-255.7,167-322.7c86.1-49.7,202.8-32.8,288.1-8.6l-194,112c-28.4,16.4-38.1,52.7-21.7,81.1c11,19,31,29.7,51.5,29.7
			c10.1,0,20.3-2.6,29.6-8l194.2-112.1C996,1670.6,950.1,1778,867.7,1825.6z M1879.1,2715.9h-830.2
			c49.1-101.1,219.3-178.1,415.1-178.1S1830,2614.8,1879.1,2715.9z M2060.2,1825.6c-86.1-49.7-129.8-159.2-151.5-245.2l194,112
			c9.4,5.4,19.6,8,29.6,8c20.5,0,40.5-10.7,51.5-29.7c16.4-28.4,6.7-64.7-21.7-81.1L1968,1477.5c89.8-24.9,205.8-38.9,288.2,8.7
			c116.2,67.1,155.1,243.2,167.1,323.1C2334.6,1844.5,2168.5,1888.1,2060.2,1825.6z"/>
		<path class="st3" d="M1632.1,1086.9l-5.7,3.3c-28.4,16.4-38.1,52.7-21.8,81.1c11,19.1,31,29.7,51.5,29.7c10.1,0,20.3-2.6,29.6-8
			l5.7-3.3c28.4-16.4,38.1-52.7,21.8-81.1C1696.8,1080.3,1660.5,1070.5,1632.1,1086.9z"/>
	</g>
</g>
<g id="Layer_5" class="st0">
	<g class="st2">
		<path class="st3" d="M2835,274.9v-91.4h-365.7v-45.7c0-75.6-61.5-137.1-137.1-137.1c-75.6,0-137.1,61.5-137.1,137.1v45.7h-365.7
			v91.4h457.1v182.8h-91.4v91.4h-123.2c-9.1-19.2-19.4-37.8-32.2-54.8c-60.1-80.2-155.8-128-256-128h-731.4
			c-100.1,0-195.9,47.9-256,128c-12.8,17-23.1,35.7-32.2,54.9H640.9v-91.4h-91.4V274.9h457.1v-91.4H640.9v-45.7
			c0-75.6-61.5-137.1-137.1-137.1S366.7,62.2,366.7,137.8v45.7H1v91.4h457.1v182.8h-91.4v320c0,75.6,61.5,137.1,137.1,137.1
			c59.5,0,109.8-38.4,128.7-91.4h99.8v291.7l-330.8,165.4c-77.9,39-126.3,117.3-126.3,204.4v755.5h-91.4v274.3h274.3v320h1919.8
			v-320h274.3v-274.3h-91.4v-755.5c0-87.1-48.4-165.4-126.3-204.4l-330.8-165.4V823.4h99.8c18.9,53.1,69.2,91.4,128.7,91.4
			c75.6,0,137.1-61.5,137.1-137.1v-320h-91.4V274.9H2835z M458.1,137.8c0-25.2,20.5-45.7,45.7-45.7s45.7,20.5,45.7,45.7v45.7h-91.4
			V137.8z M1783.7,457.8c15.5,0,30.8,1.9,45.7,5v177.9H1738v-91.4h-91.4v91.4h-91.4v-91.4h-91.4v91.4h-91.4v-91.4h-91.4v91.4h-91.4
			v-91.4H1098v91.4h-91.4V462.7c14.9-3.1,30.2-5,45.7-5H1783.7z M869.5,549.2c13-17.4,28.6-32.3,45.7-45.1v228h1005.6v-228
			c17.1,12.8,32.7,27.8,45.7,45.2c29.5,39.2,45.7,87.9,45.7,137.1v228.5h-91.4v91.4h91.4v91.4H823.8v-91.4h1005.6v-91.4H823.8V686.3
			C823.8,637.2,840,588.4,869.5,549.2z M549.5,777.7c0,25.2-20.5,45.7-45.7,45.7s-45.7-20.5-45.7-45.7V549.2h91.4V777.7z M640.9,732
			v-91.4h95.2c-2.2,15.1-3.7,30.4-3.7,45.7V732H640.9z M275.3,2423.3v-91.4h182.8v91.4H275.3z M2286.5,2743.2h-1737v-1097h594.2
			v639.9h548.5v-639.9h594.2V2743.2z M1235.2,1646.2h365.7v548.5h-365.7V1646.2z M2560.7,2423.3h-182.8v-91.4h182.8V2423.3z
			 M2469.3,1484.9v755.5h-91.4v-685.6h-685.6h-548.5H458.1v685.6h-91.4v-755.5c0-52.2,29.1-99.2,75.8-122.6l346.4-173.2h34.9v91.4
			h91.4v-91.4h137.1v91.4h91.4v-91.4h548.5v91.4h91.4v-91.4h137.1v91.4h91.4v-91.4h34.9l346.4,173.2
			C2440.2,1385.7,2469.3,1432.7,2469.3,1484.9z M2099.9,640.6h95.2V732h-91.4v-45.7C2103.6,671,2102.1,655.7,2099.9,640.6z
			 M2377.9,777.7c0,25.2-20.5,45.7-45.7,45.7c-25.2,0-45.7-20.5-45.7-45.7V549.2h91.4V777.7z M2286.5,137.8
			c0-25.2,20.5-45.7,45.7-45.7c25.2,0,45.7,20.5,45.7,45.7v45.7h-91.4V137.8z"/>
		<rect x="2103.6" y="2560.4" class="st3" width="91.4" height="91.4"/>
		<rect x="1920.8" y="2560.4" class="st3" width="91.4" height="91.4"/>
		<rect x="2103.6" y="2377.6" class="st3" width="91.4" height="91.4"/>
		<rect x="2103.6" y="2194.7" class="st3" width="91.4" height="91.4"/>
		<rect x="1920.8" y="2377.6" class="st3" width="91.4" height="91.4"/>
		<rect x="1738" y="2560.4" class="st3" width="91.4" height="91.4"/>
	</g>
</g>
<g id="Layer_6">
	<path class="st3" d="M2189.3,1676.7h-321.7V1355c0-38.6-25.7-64.3-64.3-64.3h-128.7l115.8-154.4c19.3-25.7,12.9-70.8-12.9-90.1
		c-25.7-19.3-70.8-12.9-90.1,12.9l-193,257.3c-12.9,19.3-19.3,45-6.4,64.3c12.9,19.3,32.2,38.6,57.9,38.6h193v257.3h-643.3V1162
		H1353l-115.8,154.4c-19.3,25.7-12.9,70.8,12.9,90.1c25.7,19.3,70.8,12.9,90.1-12.9l193-257.3c12.9-19.3,19.3-45,6.4-64.3
		c-12.9-19.3-32.2-38.6-57.9-38.6h-450.3c-38.6,0-64.3,25.7-64.3,64.3v579l0,0c-38.6,0-64.3,25.7-64.3,64.3
		c0,38.6,25.7,64.3,64.3,64.3h1222.3c38.6,0,64.3,25.7,64.3,64.3c0,38.6-25.7,64.3-64.3,64.3h-1544c-38.6,0-64.3-25.7-64.3-64.3
		c0-38.6,25.7-64.3,64.3-64.3h64.3c64.3,0,64.3-57.9,64.3-102.9V776c0-353.8,289.5-643.3,643.3-643.3s643.3,289.5,643.3,643.3v707.7
		c0,38.6,25.7,64.3,64.3,64.3s64.3-25.7,64.3-64.3V776c0-424.6-347.4-772-772-772s-772,347.4-772,772c0,0,0,681.9,0,900.7
		c-109.4,0-193,83.6-193,193s83.6,193,193,193h1544c109.4,0,193-83.6,193-193S2298.7,1676.7,2189.3,1676.7z"/>
	<path class="st3" d="M1031.3,2191.3c-38.6,0-64.3,25.7-64.3,64.3v514.7c0,38.6,25.7,64.3,64.3,64.3c38.6,0,64.3-25.7,64.3-64.3
		v-514.7C1095.7,2217.1,1069.9,2191.3,1031.3,2191.3z"/>
	<path class="st3" d="M1803.3,2191.3c-38.6,0-64.3,25.7-64.3,64.3v514.7c0,38.6,25.7,64.3,64.3,64.3c38.6,0,64.3-25.7,64.3-64.3
		v-514.7C1867.7,2217.1,1841.9,2191.3,1803.3,2191.3z"/>
</g>
</svg>
